<svg width="50" height="50" viewBox="0 0 50 50" fill="none" xmlns="http://www.w3.org/2000/svg">
<path d="M31.828 14.816H19.192V23.024C19.744 22.256 20.56 21.632 21.64 21.152C22.72 20.648 23.884 20.396 25.132 20.396C27.124 20.396 28.744 20.816 29.992 21.656C31.24 22.472 32.128 23.54 32.656 24.86C33.208 26.156 33.484 27.536 33.484 29C33.484 30.728 33.16 32.276 32.512 33.644C31.864 35.012 30.868 36.092 29.524 36.884C28.204 37.676 26.56 38.072 24.592 38.072C22.072 38.072 20.032 37.424 18.472 36.128C16.912 34.832 15.964 33.104 15.628 30.944H18.832C19.144 32.312 19.804 33.38 20.812 34.148C21.82 34.916 23.092 35.3 24.628 35.3C26.524 35.3 27.952 34.736 28.912 33.608C29.872 32.456 30.352 30.944 30.352 29.072C30.352 27.2 29.872 25.76 28.912 24.752C27.952 23.72 26.536 23.204 24.664 23.204C23.392 23.204 22.276 23.516 21.316 24.14C20.38 24.74 19.696 25.568 19.264 26.624H16.168V11.936H31.828V14.816Z" fill="black"/>
<path fill-rule="evenodd" clip-rule="evenodd" d="M0 25C0 11.1929 11.1929 0 25 0C38.8071 0 50 11.1929 50 25C50 38.8071 38.8071 50 25 50C11.1929 50 0 38.8071 0 25ZM25 3.48837C13.1194 3.48837 3.48837 13.1194 3.48837 25C3.48837 36.8806 13.1194 46.5116 25 46.5116C36.8806 46.5116 46.5116 36.8806 46.5116 25C46.5116 13.1194 36.8806 3.48837 25 3.48837Z" fill="url(#paint0_linear_0_1)"/>
<defs>
<linearGradient id="paint0_linear_0_1" x1="0" y1="0" x2="50.6096" y2="0.62481" gradientUnits="userSpaceOnUse">
<stop stop-color="#8F73E0"/>
<stop offset="1" stop-color="#5B68DF"/>
</linearGradient>
</defs>
</svg>
