<svg width="50" height="50" viewBox="0 0 50 50" fill="none" xmlns="http://www.w3.org/2000/svg">
<path d="M16.16 20.524C16.328 18.316 17.18 16.588 18.716 15.34C20.252 14.092 22.244 13.468 24.692 13.468C26.324 13.468 27.728 13.768 28.904 14.368C30.104 14.944 31.004 15.736 31.604 16.744C32.228 17.752 32.54 18.892 32.54 20.164C32.54 21.652 32.108 22.936 31.244 24.016C30.404 25.096 29.3 25.792 27.932 26.104V26.284C29.492 26.668 30.728 27.424 31.64 28.552C32.552 29.68 33.008 31.156 33.008 32.98C33.008 34.348 32.696 35.584 32.072 36.688C31.448 37.768 30.512 38.62 29.264 39.244C28.016 39.868 26.516 40.18 24.764 40.18C22.22 40.18 20.132 39.52 18.5 38.2C16.868 36.856 15.956 34.96 15.764 32.512H18.932C19.1 33.952 19.688 35.128 20.696 36.04C21.704 36.952 23.048 37.408 24.728 37.408C26.408 37.408 27.68 36.976 28.544 36.112C29.432 35.224 29.876 34.084 29.876 32.692C29.876 30.892 29.276 29.596 28.076 28.804C26.876 28.012 25.064 27.616 22.64 27.616H21.812V24.88H22.676C24.884 24.856 26.552 24.496 27.68 23.8C28.808 23.08 29.372 21.976 29.372 20.488C29.372 19.216 28.952 18.196 28.112 17.428C27.296 16.66 26.12 16.276 24.584 16.276C23.096 16.276 21.896 16.66 20.984 17.428C20.072 18.196 19.532 19.228 19.364 20.524H16.16Z" fill="black"/>
<path fill-rule="evenodd" clip-rule="evenodd" d="M0 25C0 11.1929 11.1929 0 25 0C38.8071 0 50 11.1929 50 25C50 38.8071 38.8071 50 25 50C11.1929 50 0 38.8071 0 25ZM25 3.48837C13.1194 3.48837 3.48837 13.1194 3.48837 25C3.48837 36.8805 13.1194 46.5116 25 46.5116C36.8805 46.5116 46.5116 36.8805 46.5116 25C46.5116 13.1194 36.8805 3.48837 25 3.48837Z" fill="url(#paint0_linear_0_1)"/>
<defs>
<linearGradient id="paint0_linear_0_1" x1="0" y1="0" x2="50.6096" y2="0.62481" gradientUnits="userSpaceOnUse">
<stop stop-color="#8F73E0"/>
<stop offset="1" stop-color="#5B68DF"/>
</linearGradient>
</defs>
</svg>
