<svg width="50" height="50" viewBox="0 0 50 50" fill="none" xmlns="http://www.w3.org/2000/svg">
<path d="M15.836 34.372C18.884 31.924 21.272 29.92 23 28.36C24.728 26.776 26.18 25.132 27.356 23.428C28.556 21.7 29.156 20.008 29.156 18.352C29.156 16.792 28.772 15.568 28.004 14.68C27.26 13.768 26.048 13.312 24.368 13.312C22.736 13.312 21.464 13.828 20.552 14.86C19.664 15.868 19.184 17.224 19.112 18.928H15.944C16.04 16.24 16.856 14.164 18.392 12.7C19.928 11.236 21.908 10.504 24.332 10.504C26.804 10.504 28.76 11.188 30.2 12.556C31.664 13.924 32.396 15.808 32.396 18.208C32.396 20.2 31.796 22.144 30.596 24.04C29.42 25.912 28.076 27.568 26.564 29.008C25.052 30.424 23.12 32.08 20.768 33.976H33.152V36.712H15.836V34.372Z" fill="black"/>
<path fill-rule="evenodd" clip-rule="evenodd" d="M0 25C0 11.1929 11.1929 0 25 0C38.8071 0 50 11.1929 50 25C50 38.8071 38.8071 50 25 50C11.1929 50 0 38.8071 0 25ZM25 3.48837C13.1194 3.48837 3.48837 13.1194 3.48837 25C3.48837 36.8805 13.1194 46.5116 25 46.5116C36.8805 46.5116 46.5116 36.8805 46.5116 25C46.5116 13.1194 36.8805 3.48837 25 3.48837Z" fill="url(#paint0_linear_0_1)"/>
<defs>
<linearGradient id="paint0_linear_0_1" x1="0" y1="0" x2="50.6096" y2="0.62481" gradientUnits="userSpaceOnUse">
<stop stop-color="#8F73E0"/>
<stop offset="1" stop-color="#5B68DF"/>
</linearGradient>
</defs>
</svg>
